<svg xmlns="http://www.w3.org/2000/svg" viewBox="0 0 32 32" fill="none">
  <defs>
    <linearGradient id="g" x1="16" y1="0" x2="16" y2="32" gradientUnits="userSpaceOnUse">
      <stop offset="0%" stop-color="#06b6d4"/>
      <stop offset="100%" stop-color="#3b82f6"/>
    </linearGradient>
    <filter id="glow" x="-20%" y="-20%" width="140%" height="140%">
      <feGaussianBlur stdDeviation="1.5" result="blur"/>
      <feMerge><feMergeNode in="blur"/><feMergeNode in="SourceGraphic"/></feMerge>
    </filter>
  </defs>
  <!-- Pin body -->
  <path
    d="M16 2C11.03 2 7 6.03 7 11c0 6.75 9 18.5 9 18.5S25 17.75 25 11c0-4.97-4.03-9-9-9z"
    fill="url(#g)"
    filter="url(#glow)"
  />
  <!-- Pin hole -->
  <circle cx="16" cy="11" r="3.2" fill="#0c0e12"/>
  <!-- Subtle inner highlight -->
  <path
    d="M16 3.5C11.86 3.5 8.5 6.86 8.5 11c0 1.2.3 2.33.82 3.32C10.02 8.5 12.72 5.5 16 5.5s5.98 3 6.68 8.82A7.47 7.47 0 0 0 23.5 11c0-4.14-3.36-7.5-7.5-7.5z"
    fill="white"
    fill-opacity="0.15"
  />
</svg>
